<?xml version="1.0" encoding="UTF-8"?>
<svg width="900px" height="900px" viewBox="0 0 900 900" version="1.1" xmlns="http://www.w3.org/2000/svg" xmlns:xlink="http://www.w3.org/1999/xlink">
    <title>OnBoarding 1</title>
    <g id="OnBoarding-1" stroke="none" stroke-width="1" fill="none" fill-rule="evenodd">
        <path d="M605.005884,538.431241 C524.231954,538.435141 453.953154,478.179241 443.570824,395.993741 L445.555204,395.742741 C455.809104,476.913641 525.231954,536.426331 605.007354,536.431221 C611.785325,536.431001 618.556549,536.003721 625.280784,535.151921 C713.266624,524.036681 775.805204,443.412661 764.689964,355.426821 L766.674344,355.175821 C777.927764,444.255411 714.611344,525.883341 625.531764,537.136271 C618.723699,537.997614 611.86822,538.431241 605.005884,538.431241 L605.005884,538.431241 Z" id="Path" fill="#2E678D" fill-rule="nonzero"></path>
        <path d="M669.417024,276.638271 C658.457623,247.666377 673.059635,215.295667 702.031529,204.336266 C731.003423,193.376866 763.374133,207.978877 774.333534,236.950771 L772.462434,237.658771 C765.625891,219.585722 749.666807,206.532787 730.596815,203.416883 C711.526823,200.300978 692.243109,207.595483 680.00966,222.552628 C667.776211,237.509773 664.451581,257.857212 671.288124,275.930261 L669.417024,276.638271 Z" id="Path" fill="#2E678D" fill-rule="nonzero"></path>
        <path d="M831.889264,374.529831 L730.224204,374.529831 C724.551171,374.5234 719.953882,369.926085 719.947484,364.253051 L719.947484,229.636931 C719.953876,223.963894 724.551167,219.366573 730.224204,219.360141 L831.889264,219.360141 C837.562312,219.366562 842.15962,223.963883 842.166024,229.636931 L842.166024,364.253051 C842.159615,369.926096 837.562308,374.523411 831.889264,374.529831 L831.889264,374.529831 Z" id="Path" fill="#F8F8F8" fill-rule="nonzero"></path>
        <path d="M791.496114,366.464441 L737.370634,366.464441 C732.057513,366.458583 727.751762,362.153052 727.745634,356.839931 L727.745634,237.049931 C727.751762,231.736811 732.057513,227.431279 737.370634,227.425421 L824.743194,227.425421 C830.056219,227.431318 834.361807,231.736906 834.367704,237.049931 L834.367704,323.593391 C834.340832,347.25949 815.162213,366.437868 791.496114,366.464441 L791.496114,366.464441 Z" id="Path" fill="#FFFFFF" fill-rule="nonzero"></path>
        <path d="M816.027024,287.498071 L746.086474,287.498071 C744.826712,287.498071 743.805474,286.476833 743.805474,285.217071 C743.805474,283.95731 744.826712,282.936071 746.086474,282.936071 L816.027024,282.936071 C817.286785,282.936071 818.308024,283.95731 818.308024,285.217071 C818.308024,286.476833 817.286785,287.498071 816.027024,287.498071 Z" id="Path" fill="#E4E4E4" fill-rule="nonzero"></path>
        <path d="M816.027024,296.511411 L746.086474,296.511411 C744.828519,296.508778 743.81014,295.488264 743.81014,294.230306 C743.81014,292.972349 744.828519,291.951835 746.086474,291.949201 L816.027024,291.949201 C817.286843,291.949201 818.308129,292.970487 818.308129,294.230306 C818.308129,295.490126 817.286843,296.511411 816.027024,296.511411 L816.027024,296.511411 Z" id="Path" fill="#E4E4E4" fill-rule="nonzero"></path>
        <path d="M776.404024,305.524741 L746.086474,305.524741 C744.826654,305.524741 743.805369,304.503456 743.805369,303.243636 C743.805369,301.983817 744.826654,300.962531 746.086474,300.962531 L776.404024,300.962531 C777.663843,300.962531 778.685129,301.983817 778.685129,303.243636 C778.685129,304.503456 777.663843,305.524741 776.404024,305.524741 Z" id="Path" fill="#E4E4E4" fill-rule="nonzero"></path>
        <path d="M816.027024,250.690191 L746.086474,250.690191 C744.826712,250.690191 743.805474,249.668953 743.805474,248.409191 C743.805474,247.14943 744.826712,246.128191 746.086474,246.128191 L816.027024,246.128191 C817.286785,246.128191 818.308024,247.14943 818.308024,248.409191 C818.308024,249.668953 817.286785,250.690191 816.027024,250.690191 Z" id="Path" fill="#E4E4E4" fill-rule="nonzero"></path>
        <path d="M816.027024,259.703521 L746.086474,259.703521 C744.826657,259.703521 743.805374,258.682238 743.805374,257.422421 C743.805374,256.162605 744.826657,255.141321 746.086474,255.141321 L816.027024,255.141321 C817.286841,255.141321 818.308124,256.162605 818.308124,257.422421 C818.308124,258.682238 817.286841,259.703521 816.027024,259.703521 Z" id="Path" fill="#E4E4E4" fill-rule="nonzero"></path>
        <path d="M776.404024,268.716861 L746.086474,268.716861 C744.828519,268.714228 743.81014,267.693714 743.81014,266.435756 C743.81014,265.177799 744.828519,264.157285 746.086474,264.154651 L776.404024,264.154651 C777.661979,264.157285 778.680358,265.177799 778.680358,266.435756 C778.680358,267.693714 777.661979,268.714228 776.404024,268.716861 Z" id="Path" fill="#E4E4E4" fill-rule="nonzero"></path>
        <path d="M816.027024,325.594141 L746.086474,325.594141 C744.826712,325.594141 743.805474,324.572903 743.805474,323.313141 C743.805474,322.05338 744.826712,321.032141 746.086474,321.032141 L816.027024,321.032141 C817.286785,321.032141 818.308024,322.05338 818.308024,323.313141 C818.308024,324.572903 817.286785,325.594141 816.027024,325.594141 Z" id="Path" fill="#A2CFEE" fill-rule="nonzero"></path>
        <path d="M757.027024,334.607471 L746.086474,334.607471 C744.828519,334.604838 743.81014,333.584324 743.81014,332.326366 C743.81014,331.068409 744.828519,330.047895 746.086474,330.045261 L757.027024,330.045261 C758.286843,330.045261 759.308129,331.066547 759.308129,332.326366 C759.308129,333.586186 758.286843,334.607471 757.027024,334.607471 Z" id="Path" fill="#A2CFEE" fill-rule="nonzero"></path>
        <path d="M776.404024,343.620801 L746.086474,343.620801 C744.826654,343.620801 743.805369,342.599516 743.805369,341.339696 C743.805369,340.079877 744.826654,339.058591 746.086474,339.058591 L776.404024,339.058591 C777.663843,339.058591 778.685129,340.079877 778.685129,341.339696 C778.685129,342.599516 777.663843,343.620801 776.404024,343.620801 Z" id="Path" fill="#A2CFEE" fill-rule="nonzero"></path>
        <path d="M445.086944,370.017141 C426.741981,321.451794 451.225886,267.208441 499.782585,248.840599 C548.339284,230.472757 602.594166,254.931102 620.984884,303.479141 L619.113794,304.187141 C607.489258,273.422756 580.331664,251.199575 547.875366,245.892416 C515.419067,240.585257 482.597449,253.000812 461.779353,278.460273 C440.961258,303.919734 435.311054,338.553242 446.958024,369.309141 L445.086944,370.017141 Z" id="Path" fill="#2E678D" fill-rule="nonzero"></path>
        <circle id="Oval" fill="#E6E6E6" fill-rule="nonzero" cx="619.906854" cy="207.140881" r="9.54602"></circle>
        <circle id="Oval" fill="#E6E6E6" fill-rule="nonzero" cx="632.906854" cy="482.140881" r="9.54602"></circle>
        <circle id="Oval" fill="#E6E6E6" fill-rule="nonzero" cx="387.906854" cy="255.140881" r="9.54602"></circle>
        <path d="M519.700194,647.388061 L301.167194,647.388061 C288.972811,647.374207 279.09079,637.492115 279.077024,625.297731 L279.077024,335.935141 C279.090784,323.74074 288.972833,313.858638 301.167234,313.844811 L519.700234,313.844811 C531.894659,313.858611 541.776747,323.740716 541.790524,335.935141 L541.790524,625.297731 C541.776747,637.492172 531.894635,647.374284 519.700194,647.388061 L519.700194,647.388061 Z" id="Path" fill="#F8F8F8" fill-rule="nonzero"></path>
        <path d="M436.292504,629.477141 L316.528344,629.477141 C305.424912,629.464395 296.427056,620.466323 296.414574,609.362891 L296.414574,351.869711 C296.427095,340.766373 305.425006,331.768462 316.528344,331.755941 L504.338894,331.755941 C515.442232,331.768462 524.440143,340.766373 524.452664,351.869711 L524.452664,541.316981 C524.397571,589.983655 484.959177,629.422049 436.292504,629.477141 Z" id="Path" fill="#FFFFFF" fill-rule="nonzero"></path>
        <path d="M485.603614,381.189966 L335.263774,381.189966 C333.510406,381.192465 331.889155,380.258493 331.011747,378.740447 C330.13434,377.222402 330.13434,375.35137 331.011747,373.833325 C331.889155,372.31528 333.510406,371.381307 335.263774,371.383806 L485.603614,371.383806 C487.356982,371.381307 488.978233,372.31528 489.85564,373.833325 C490.733048,375.35137 490.733048,377.222402 489.85564,378.740447 C488.978233,380.258493 487.356982,381.192465 485.603614,381.189966 L485.603614,381.189966 Z" id="Path" fill="#A2CFEE" fill-rule="nonzero"></path>
        <path d="M485.603614,400.564471 L335.263774,400.564471 C332.555745,400.564471 330.360454,398.36918 330.360454,395.661151 C330.360454,392.953123 332.555745,390.757831 335.263774,390.757831 L485.603614,390.757831 C488.311643,390.757831 490.506934,392.953123 490.506934,395.661151 C490.506934,398.36918 488.311643,400.564471 485.603614,400.564471 Z" id="Path" fill="#A2CFEE" fill-rule="nonzero"></path>
        <path d="M400.432474,419.938981 L335.263774,419.938981 C332.555745,419.938981 330.360454,417.74369 330.360454,415.035661 C330.360454,412.327633 332.555745,410.132341 335.263774,410.132341 L400.432474,410.132341 C403.140503,410.132341 405.335794,412.327633 405.335794,415.035661 C405.335794,417.74369 403.140503,419.938981 400.432474,419.938981 Z" id="Path" fill="#A2CFEE" fill-rule="nonzero"></path>
        <path d="M485.603614,460.516416 L335.263774,460.516416 C333.510406,460.518915 331.889155,459.584943 331.011747,458.066897 C330.13434,456.548852 330.13434,454.67782 331.011747,453.159775 C331.889155,451.64173 333.510406,450.707757 335.263774,450.710256 L485.603614,450.710256 C487.356982,450.707757 488.978233,451.64173 489.85564,453.159775 C490.733048,454.67782 490.733048,456.548852 489.85564,458.066897 C488.978233,459.584943 487.356982,460.518915 485.603614,460.516416 L485.603614,460.516416 Z" id="Path" fill="#E4E4E4" fill-rule="nonzero"></path>
        <path d="M485.603614,479.890921 L335.263774,479.890921 C332.555745,479.890921 330.360454,477.69563 330.360454,474.987601 C330.360454,472.279573 332.555745,470.084281 335.263774,470.084281 L485.603614,470.084281 C488.311643,470.084281 490.506934,472.279573 490.506934,474.987601 C490.506934,477.69563 488.311643,479.890921 485.603614,479.890921 Z" id="Path" fill="#E4E4E4" fill-rule="nonzero"></path>
        <path d="M400.432474,499.265431 L335.263774,499.265431 C332.555745,499.265431 330.360454,497.07014 330.360454,494.362111 C330.360454,491.654083 332.555745,489.458791 335.263774,489.458791 L400.432474,489.458791 C403.140503,489.458791 405.335794,491.654083 405.335794,494.362111 C405.335794,497.07014 403.140503,499.265431 400.432474,499.265431 Z" id="Path" fill="#E4E4E4" fill-rule="nonzero"></path>
        <path d="M485.603614,539.842866 L335.263774,539.842866 C333.510406,539.845365 331.889155,538.911393 331.011747,537.393347 C330.13434,535.875302 330.13434,534.00427 331.011747,532.486225 C331.889155,530.96818 333.510406,530.034207 335.263774,530.036706 L485.603614,530.036706 C487.356982,530.034207 488.978233,530.96818 489.85564,532.486225 C490.733048,534.00427 490.733048,535.875302 489.85564,537.393347 C488.978233,538.911393 487.356982,539.845365 485.603614,539.842866 L485.603614,539.842866 Z" id="Path" fill="#E4E4E4" fill-rule="nonzero"></path>
        <path d="M485.603614,559.217371 L335.263774,559.217371 C332.555745,559.217371 330.360454,557.02208 330.360454,554.314051 C330.360454,551.606023 332.555745,549.410731 335.263774,549.410731 L485.603614,549.410731 C488.311643,549.410731 490.506934,551.606023 490.506934,554.314051 C490.506934,557.02208 488.311643,559.217371 485.603614,559.217371 Z" id="Path" fill="#E4E4E4" fill-rule="nonzero"></path>
        <path d="M400.432474,578.591891 L335.263774,578.591891 C332.558476,578.588028 330.367446,576.393867 330.367446,573.688566 C330.367446,570.983266 332.558476,568.789105 335.263774,568.785241 L400.432474,568.785241 C403.137771,568.789105 405.328801,570.983266 405.328801,573.688566 C405.328801,576.393867 403.137771,578.588028 400.432474,578.591891 L400.432474,578.591891 Z" id="Path" fill="#E4E4E4" fill-rule="nonzero"></path>
        <path d="M688.075684,432.529831 L577.405934,432.529831 C571.230417,432.522855 566.225911,427.518349 566.218934,421.342831 L566.218934,274.803461 C566.225916,268.627946 571.230419,263.623444 577.405934,263.616461 L688.075684,263.616461 C694.251197,263.623449 699.255696,268.627949 699.262684,274.803461 L699.262684,421.342821 C699.255702,427.518338 694.2512,432.522844 688.075684,432.529831 L688.075684,432.529831 Z" id="Path" fill="#F8F8F8" fill-rule="nonzero"></path>
        <path d="M647.049834,423.705651 L585.185084,423.705651 C579.426044,423.69905 574.759066,419.032072 574.752464,413.273031 L574.752464,282.873141 C574.758851,277.113933 579.425875,272.446689 585.185084,272.440031 L680.296414,272.440031 C686.055787,272.446479 690.723071,277.113768 690.729514,282.873141 L690.729514,380.026461 C690.702141,404.138656 671.162029,423.678549 647.049834,423.705651 L647.049834,423.705651 Z" id="Path" fill="#FFFFFF" fill-rule="nonzero"></path>
        <path d="M670.808464,297.721451 L594.673164,297.721451 C593.301841,297.721451 592.190164,296.609774 592.190164,295.238451 C592.190164,293.867128 593.301841,292.755451 594.673164,292.755451 L670.808464,292.755451 C672.179787,292.755451 673.291464,293.867128 673.291464,295.238451 C673.291464,296.609774 672.179787,297.721451 670.808464,297.721451 Z" id="Path" fill="#E4E4E4" fill-rule="nonzero"></path>
        <path d="M670.808464,307.533141 L594.673164,307.533141 C593.303706,307.530393 592.194997,306.419457 592.194997,305.049996 C592.194997,303.680536 593.303706,302.5696 594.673164,302.566851 L670.808464,302.566851 C672.177921,302.5696 673.286631,303.680536 673.286631,305.049996 C673.286631,306.419457 672.177921,307.530393 670.808464,307.533141 L670.808464,307.533141 Z" id="Path" fill="#E4E4E4" fill-rule="nonzero"></path>
        <path d="M627.676024,317.344781 L594.673164,317.344781 C593.303706,317.342033 592.194997,316.231097 592.194997,314.861636 C592.194997,313.492176 593.303706,312.38124 594.673164,312.378491 L627.676024,312.378491 C629.045481,312.38124 630.154191,313.492176 630.154191,314.861636 C630.154191,316.231097 629.045481,317.342033 627.676024,317.344781 L627.676024,317.344781 Z" id="Path" fill="#E4E4E4" fill-rule="nonzero"></path>
        <path d="M670.808464,337.894051 L594.673164,337.894051 C593.301841,337.894051 592.190164,336.782374 592.190164,335.411051 C592.190164,334.039728 593.301841,332.928051 594.673164,332.928051 L670.808464,332.928051 C672.179787,332.928051 673.291464,334.039728 673.291464,335.411051 C673.291464,336.782374 672.179787,337.894051 670.808464,337.894051 Z" id="Path" fill="#A2CFEE" fill-rule="nonzero"></path>
        <path d="M650.808464,347.705721 L594.673164,347.705721 C593.301761,347.705721 592.190019,346.593979 592.190019,345.222576 C592.190019,343.851173 593.301761,342.739431 594.673164,342.739431 L650.808464,342.739431 C652.179867,342.739431 653.291609,343.851173 653.291609,345.222576 C653.291609,346.593979 652.179867,347.705721 650.808464,347.705721 L650.808464,347.705721 Z" id="Path" fill="#A2CFEE" fill-rule="nonzero"></path>
        <path d="M627.676024,357.517381 L594.673164,357.517381 C593.303706,357.514633 592.194997,356.403697 592.194997,355.034236 C592.194997,353.664776 593.303706,352.55384 594.673164,352.551091 L627.676024,352.551091 C629.045481,352.55384 630.154191,353.664776 630.154191,355.034236 C630.154191,356.403697 629.045481,357.514633 627.676024,357.517381 L627.676024,357.517381 Z" id="Path" fill="#A2CFEE" fill-rule="nonzero"></path>
        <path d="M670.808464,378.066651 L594.673164,378.066651 C593.301841,378.066651 592.190164,376.954974 592.190164,375.583651 C592.190164,374.212328 593.301841,373.100651 594.673164,373.100651 L670.808464,373.100651 C672.179787,373.100651 673.291464,374.212328 673.291464,375.583651 C673.291464,376.954974 672.179787,378.066651 670.808464,378.066651 Z" id="Path" fill="#E4E4E4" fill-rule="nonzero"></path>
        <path d="M670.808464,387.878321 L594.673164,387.878321 C593.301761,387.878321 592.190019,386.766579 592.190019,385.395176 C592.190019,384.023773 593.301761,382.912031 594.673164,382.912031 L670.808464,382.912031 C672.179867,382.912031 673.291609,384.023773 673.291609,385.395176 C673.291609,386.766579 672.179867,387.878321 670.808464,387.878321 L670.808464,387.878321 Z" id="Path" fill="#E4E4E4" fill-rule="nonzero"></path>
        <path d="M627.676024,397.689981 L594.673164,397.689981 C593.303706,397.687233 592.194997,396.576297 592.194997,395.206836 C592.194997,393.837376 593.303706,392.72644 594.673164,392.723691 L627.676024,392.723691 C629.045481,392.72644 630.154191,393.837376 630.154191,395.206836 C630.154191,396.576297 629.045481,397.687233 627.676024,397.689981 L627.676024,397.689981 Z" id="Path" fill="#E4E4E4" fill-rule="nonzero"></path>
        <path d="M186.395454,482.875381 C188.11094,481.008829 188.911549,478.478291 188.581853,475.964686 C188.252156,473.451081 186.826022,471.212613 184.687194,469.851611 L191.707564,440.230611 L176.849104,445.659041 L172.460404,472.955411 C170.366217,476.784092 171.466614,481.57401 175.021785,484.104853 C178.576957,486.635697 183.463183,486.107515 186.395404,482.875411 L186.395454,482.875381 Z" id="Path" fill="#FFB8B8" fill-rule="nonzero"></path>
        <path d="M222.126624,358.747951 L216.163514,374.081681 C216.163514,374.081681 218.719134,389.415401 214.459764,392.822901 C210.200394,396.230401 211.904144,396.230391 211.904144,398.786011 C211.607408,402.49336 209.749257,405.899972 206.792904,408.156621 C203.385404,410.712241 188.051684,462.676531 188.051684,462.676531 L172.717954,462.676531 C173.213304,458.716552 173.213304,454.710281 172.717954,450.750301 C171.866084,444.787191 175.273574,429.453461 176.977324,426.897841 C178.681074,424.342221 176.977324,420.934731 176.977324,415.823481 C176.977324,410.712231 180.384824,408.156621 180.384824,399.637891 C180.384824,391.119161 190.607304,324.673011 189.755424,317.006151 C188.903544,309.339291 198.274164,302.524301 198.274164,302.524301 L206.792904,302.524301 L222.126624,358.747951 Z" id="Path" fill="#FFFFFF" fill-rule="nonzero"></path>
        <polygon id="Path" fill="#FFB8B8" fill-rule="nonzero" points="258.206004 391.271051 272.379004 454.521051 181.556004 448.871051 206.253004 386.754051"></polygon>
        <path d="M60.2347038,628.994221 C62.9383466,638.769002 67.1597345,648.058755 72.7447038,656.524221 C85.2247038,675.394221 103.084704,689.824221 122.714704,701.374221 C124.074704,702.184221 125.454704,702.974221 126.834704,703.754221 L140.604704,703.754221 L141.084704,702.654221 L141.084704,702.644221 L141.644634,701.374221 L141.714704,701.224221 L141.744704,701.374221 L142.294704,703.754221 L149.054594,703.754221 C149.614534,702.964221 150.164594,702.174221 150.704594,701.374221 C151.494594,700.204221 152.254594,699.024221 152.974594,697.824221 C154.24552,695.72547 155.381133,693.547706 156.374504,691.304221 C156.494614,691.054221 156.594594,690.804221 156.694564,690.554221 L156.244564,690.064221 L158.114444,681.884221 L154.354554,681.264221 L158.474554,668.554221 C158.324554,668.084221 158.154484,667.614221 157.974554,667.144221 C155.664494,661.294221 151.324554,656.924221 146.174554,653.254221 C140.874554,649.464221 134.704554,646.424221 129.034664,643.264221 C126.374514,641.774221 123.754664,640.204221 121.204584,638.544221 L121.204584,638.534221 C117.944584,636.424168 114.781251,634.167501 111.714584,631.764221 C111.662245,631.730856 111.612138,631.694112 111.564584,631.654221 C111.522199,631.623858 111.482092,631.590436 111.444584,631.554221 C97.6963964,620.813575 86.0624594,607.613094 77.1345338,592.624221 C77.1318652,592.624276 77.1292895,592.623241 77.1274021,592.621353 C77.1255147,592.619466 77.1244788,592.61689 77.1245338,592.614221 C76.8246038,592.134221 76.5446938,591.654221 76.2646638,591.164271 L76.2646638,591.154271 C72.6085201,584.865947 69.4617967,578.294947 66.8546638,571.504271 L66.8546638,571.494271 C66.6545838,570.994271 66.4746638,570.494271 66.2846638,569.994271 C66.0246638,570.434271 65.7746638,570.874271 65.5346638,571.314271 C65.5319952,571.314216 65.5294195,571.315252 65.5275321,571.31714 C65.5256447,571.319027 65.5246088,571.321603 65.5246638,571.324271 C55.8246738,588.674211 54.9046238,609.574241 60.2347038,628.994221 Z" id="Path" fill="#F8F8F8" fill-rule="nonzero"></path>
        <path d="M65.5247438,571.324241 C65.4276061,580.583664 66.3904944,589.823785 68.3946138,598.864241 C69.2952558,603.001321 70.4169,607.087177 71.7547238,611.104241 C74.3517314,618.963344 77.7460359,626.536109 81.8846138,633.704241 C82.1146138,634.094241 82.3346838,634.474241 82.5746738,634.854241 L82.5746738,634.864241 C84.3434132,637.846443 86.2625545,640.736836 88.3246738,643.524241 C91.4453566,647.964707 95.3006512,651.840292 99.7246738,654.984241 C103.338234,657.371813 107.424652,658.951121 111.704674,659.614241 C112.504674,659.764241 113.324674,659.874241 114.154674,659.974241 C117.464734,660.364241 120.884674,660.514241 124.164674,661.214241 C125.826002,661.542371 127.44355,662.062529 128.984744,662.764241 C134.264744,665.214241 137.234744,670.344241 138.534744,675.824241 C138.764744,676.784241 138.944654,677.754241 139.084674,678.724241 C140.174674,686.174191 138.974674,693.914241 139.594674,701.374241 C139.664614,702.164241 139.754674,702.964241 139.864574,703.754241 L140.604684,703.754241 L141.084684,702.654241 L141.084684,702.644241 C141.034754,702.224241 140.994684,701.804241 140.954684,701.374241 C140.714695,697.708963 140.684619,694.032956 140.864604,690.364241 C140.904604,688.714241 140.934664,687.054241 140.914604,685.394241 C140.894604,684.064241 140.844664,682.734241 140.744684,681.414241 L140.744684,681.404241 C140.674614,680.584241 140.594684,679.774241 140.484684,678.964241 C140.167098,676.484053 139.556131,674.050348 138.664614,671.714241 C136.905026,666.845478 133.150254,662.959703 128.344674,661.034241 C126.893299,660.489999 125.397741,660.071787 123.874584,659.784241 C120.524724,659.144241 117.064644,658.984241 113.694644,658.564241 C113.334644,658.524241 112.974644,658.474241 112.624584,658.414241 C112.174584,658.344241 111.734684,658.264241 111.294744,658.184191 C106.885363,657.401502 102.72069,655.596621 99.1345938,652.914241 C94.8730261,649.540326 91.1678707,645.517954 88.1545938,640.994191 C86.5147038,638.644191 84.9545938,636.244191 83.5046938,633.774191 C83.5047489,633.771523 83.503713,633.768947 83.5018256,633.76706 C83.4999381,633.765172 83.4973625,633.764136 83.4946938,633.764191 C83.4246238,633.644191 83.3546938,633.534191 83.2846938,633.414191 L83.2746938,633.394191 C77.0551577,622.765289 72.5149237,611.23937 69.8146138,599.224191 C69.7246138,598.784191 69.6245538,598.344191 69.5246938,597.904191 C67.6686671,589.228824 66.7732746,580.375505 66.8546938,571.504191 L66.8546938,571.494191 C66.8546938,571.074191 66.8645838,570.664241 66.8745938,570.244191 C66.8945938,569.384191 65.5646538,569.194191 65.5447538,570.054191 C65.5347538,570.474191 65.5247538,570.894191 65.5347538,571.314191 C65.5320746,571.314133 65.5294883,571.315175 65.5275971,571.317073 C65.525706,571.318972 65.5246748,571.321562 65.5247438,571.324241 L65.5247438,571.324241 Z" id="Path" fill="#FFFFFF" fill-rule="nonzero"></path>
        <path d="M83.1455438,634.583141 C75.2754268,638.580601 65.6681199,636.287892 60.4512338,629.167321 C59.9425438,628.467981 61.0053938,627.644641 61.5147638,628.344911 C66.3622729,634.986999 75.3263519,637.106854 82.6354938,633.339611 C83.4047238,632.944281 83.9103738,634.190081 83.1455438,634.583141 L83.1455438,634.583141 Z" id="Path" fill="#FFFFFF" fill-rule="nonzero"></path>
        <path d="M111.166294,658.582621 C113.950813,650.30154 113.511797,641.275183 109.936784,633.303411 C109.581944,632.513881 110.825904,632.004781 111.180324,632.793361 C114.885079,641.09592 115.322844,650.490162 112.406254,659.101271 C112.127704,659.921841 110.889254,659.398731 111.166254,658.582621 L111.166294,658.582621 Z" id="Path" fill="#FFFFFF" fill-rule="nonzero"></path>
        <path d="M69.1382738,598.026921 C72.4502238,597.129777 75.0890787,594.627379 76.1606438,591.367681 C76.4286438,590.543981 77.6668938,591.068001 77.4006438,591.886331 C76.2004915,595.480686 73.2968059,598.246474 69.6483538,599.270461 C69.3051055,599.398573 68.9213701,599.238062 68.7715638,598.903711 C68.6327351,598.56033 68.7963361,598.169198 69.1383038,598.026921 L69.1382738,598.026921 Z" id="Path" fill="#FFFFFF" fill-rule="nonzero"></path>
        <path d="M121.204674,638.534261 L121.204674,638.544261 C121.514805,645.685152 122.407751,652.788774 123.874604,659.784261 L123.874604,659.794261 C123.954674,660.274261 124.064664,660.744261 124.164604,661.214261 C126.5782,672.033251 129.961923,682.612708 134.274714,692.824261 C135.464654,695.704261 136.711321,698.554261 138.014714,701.374261 C138.374584,702.174261 138.744714,702.964261 139.124584,703.754261 L140.604684,703.754261 L141.084684,702.654261 L141.084684,702.644261 L141.644614,701.374261 L141.714684,701.224261 L141.744684,701.374261 L142.294684,703.754261 L156.594614,703.754261 L159.374524,701.374261 L163.424524,697.904261 L157.764614,691.724261 L156.834614,690.704261 L156.694614,690.554261 L156.244614,690.064261 L158.114494,681.884261 L154.354604,681.264261 L158.474604,668.554261 L160.424604,662.544261 L160.914604,661.034261 L163.764704,652.244261 L172.364564,653.854311 L173.764704,648.954311 C171.186972,642.979158 169.041459,636.826682 167.344704,630.544311 C167.334704,630.494311 167.314704,630.454311 167.304704,630.404361 C162.761157,613.482307 161.398103,595.863894 163.284804,578.444361 L163.284804,578.434361 C163.344744,577.874361 163.414684,577.304361 163.494804,576.754361 L163.494804,576.734361 C164.351945,569.515363 165.79674,562.378346 167.814804,555.394361 C167.954804,554.864361 168.114734,554.344361 168.264874,553.824361 C167.804794,554.024361 167.354874,554.214361 166.894754,554.414361 L166.884754,554.424301 L166.864754,554.424301 C166.134754,554.744301 165.404754,555.084301 164.694824,555.444301 C147.634774,563.734301 135.084824,579.294301 127.954824,597.234301 C127.934824,597.284301 127.914824,597.324301 127.894764,597.374301 C124.174428,606.778892 121.957327,616.710384 121.324824,626.804301 C121.085026,630.70969 121.044924,634.62478 121.204674,638.534261 L121.204674,638.534261 Z" id="Path" fill="#F0F0F0" fill-rule="nonzero"></path>
        <path d="M147.154624,703.754231 L148.734704,703.754231 C149.234704,702.944231 149.774704,702.154231 150.314704,701.374231 C151.174704,700.164271 152.061371,698.980938 152.974704,697.824231 C153.764704,696.824231 154.554704,695.834231 155.344704,694.844231 C156.164644,693.814231 156.974704,692.784231 157.764704,691.724231 L156.834704,690.704231 C156.684704,690.904231 156.534774,691.104231 156.374624,691.304231 C153.814684,694.674231 151.044784,697.914281 148.674624,701.374231 C148.144614,702.154261 147.634614,702.944231 147.154624,703.754231 Z" id="Path" fill="#FFFFFF" fill-rule="nonzero"></path>
        <path d="M168.596604,554.383041 C168.336604,554.713041 168.066604,555.053041 167.816604,555.393041 C165.866604,557.923041 164.023271,560.533041 162.286604,563.223041 C159.193664,567.969291 156.446558,572.932128 154.066604,578.073041 C153.876604,578.473041 153.686604,578.883041 153.506604,579.293041 C148.413769,590.526488 145.094304,602.481962 143.666604,614.733041 C143.646604,614.853041 143.636604,614.963041 143.626604,615.083041 C143.296657,617.943041 143.083324,620.813041 142.986604,623.693041 C142.667698,629.116513 143.204262,634.556386 144.576604,639.813041 C144.776604,640.503041 144.996604,641.183041 145.236604,641.843041 C145.838187,643.46057 146.591548,645.017516 147.486604,646.493041 C148.129724,647.569938 148.844677,648.602276 149.626604,649.583041 C150.096604,650.183041 150.586604,650.773041 151.106604,651.343041 C151.406604,651.673041 151.716604,652.003041 152.026604,652.333041 C152.286604,652.583041 152.536604,652.843041 152.796604,653.093041 C155.496604,655.713041 158.476604,658.143041 160.916604,661.033041 L160.426604,662.542981 C158.076604,659.562981 155.046664,657.092981 152.316604,654.492981 C150.602757,652.881433 149.04269,651.113803 147.656604,649.212981 C147.476604,648.952981 147.286604,648.692981 147.116604,648.422981 C146.190096,647.069289 145.390075,645.633239 144.726654,644.132981 C144.386654,643.382981 144.076654,642.612981 143.796654,641.812981 C142.162861,636.642643 141.418952,631.2324 141.596654,625.812981 C141.62879,622.341437 141.835719,618.873712 142.216654,615.422981 C142.256654,614.972981 142.306654,614.533031 142.366654,614.082981 C143.380662,605.869486 145.230244,597.780915 147.886654,589.942981 C151.248696,579.999594 155.873149,570.528877 161.646654,561.762981 C163.296654,559.252981 165.046654,556.802981 166.896654,554.412981 C167.136654,554.082981 167.386654,553.762981 167.646654,553.432981 C168.176564,552.753041 169.126574,553.703051 168.596604,554.383041 Z" id="Path" fill="#FFFFFF" fill-rule="nonzero"></path>
        <path d="M142.842614,615.549411 C134.152025,614.002802 127.8615,606.387949 127.983174,597.561651 C127.991506,597.199468 128.285194,596.908951 128.647446,596.9045 C129.009698,596.90015 129.310357,597.183448 129.327484,597.545321 C129.198958,605.76718 135.079958,612.856751 143.184024,614.249441 C144.036224,614.396921 143.689894,615.696061 142.842574,615.549441 L142.842614,615.549411 Z" id="Path" fill="#FFFFFF" fill-rule="nonzero"></path>
        <path d="M150.766284,651.582061 C157.975349,646.64656 163.059311,639.175205 165.004424,630.657791 C165.196424,629.813791 166.496194,630.156221 166.304424,630.999241 C164.263739,639.8589 158.957265,647.623244 151.444024,652.742731 C150.727574,653.230191 150.053684,652.066891 150.766244,651.582061 L150.766284,651.582061 Z" id="Path" fill="#FFFFFF" fill-rule="nonzero"></path>
        <path d="M153.668024,577.927971 C156.852578,579.205671 160.466175,578.796414 163.284324,576.838881 C163.994244,576.342571 164.667404,577.506471 163.962104,577.999541 C160.839805,580.146868 156.856176,580.606976 153.326584,579.227941 C152.975386,579.123577 152.765629,578.764386 152.847314,578.407231 C152.943204,578.049474 153.309322,577.835676 153.668024,577.927971 L153.668024,577.927971 Z" id="Path" fill="#FFFFFF" fill-rule="nonzero"></path>
        <polygon id="Path" fill="#FFB8B8" fill-rule="nonzero" points="243.082004 683.193051 253.284004 683.192051 258.138004 643.841051 243.080004 643.841051"></polygon>
        <path d="M239.627204,678.159751 L255.754784,677.197151 L255.754784,684.106911 L271.087724,694.696391 C272.642206,695.769692 273.318116,697.729151 272.755953,699.532581 C272.193791,701.336012 270.524192,702.564231 268.635174,702.564231 L249.434684,702.564231 L246.125194,695.729421 L244.832994,702.564231 L237.593644,702.564231 L239.627204,678.159751 Z" id="Path" fill="#2F2E41" fill-rule="nonzero"></path>
        <polygon id="Path" fill="#FFB8B8" fill-rule="nonzero" points="146.657004 678.117051 156.628004 680.279051 169.713004 642.851051 154.998004 639.660051"></polygon>
        <path d="M144.347864,672.466061 L160.312924,674.944441 L158.848024,681.697141 L171.587424,695.296551 C172.878985,696.675016 173.124093,698.7332 172.192383,700.376432 C171.260673,702.019664 169.368652,702.8661 167.522614,702.465551 L148.758614,698.394981 L146.973344,691.013911 L144.261524,697.419401 L137.186734,695.884641 L144.347864,672.466061 Z" id="Path" fill="#2F2E41" fill-rule="nonzero"></path>
        <path d="M74.8046486,702.564231 C74.8046486,702.880137 74.9287931,703.183375 75.1521787,703.406749 C75.3755644,703.630123 75.6788082,703.755189 75.9947138,703.754237 L356.284714,703.754237 C356.941933,703.754237 357.474714,703.22145 357.474714,702.564231 C357.474714,701.907013 356.941933,701.374226 356.284714,701.374226 L75.9947138,701.374226 C75.6788115,701.373285 75.3755739,701.498354 75.1521906,701.721726 C74.9288072,701.945098 74.8046486,702.248329 74.8046486,702.564231 Z" id="Path" fill-opacity="0.663652753" fill="#F3F3F3" fill-rule="nonzero"></path>
        <path d="M274.697784,507.411301 C267.537784,546.761301 265.747784,563.751301 265.747784,563.751301 C265.747784,563.751301 271.117784,570.011301 267.537784,573.591301 C263.957784,577.171301 267.537784,584.321301 267.537784,584.321301 L258.166024,659.159751 L256.166024,670.159751 L237.397784,667.511281 L240.166024,657.159751 L235.347794,585.221301 C235.347794,585.221301 231.767794,578.061301 233.557794,576.271301 C235.347794,574.481301 231.767794,563.751301 231.767794,563.751301 L227.297794,478.791301 L199.567794,571.801301 C199.567794,571.801301 202.257734,575.381301 199.567794,578.061301 C196.887794,580.741301 191.527794,594.161301 191.527794,594.161301 L171.166024,648.159751 L167.166024,656.159751 L165.037794,655.151291 L155.677794,653.391291 L153.957794,653.071351 L150.897794,652.491351 L148.927794,652.121351 L148.257744,652.001351 L145.017744,651.391301 L145.997744,647.041301 L153.165954,636.159741 L160.457704,582.791301 L160.777704,581.361301 L161.117704,579.851301 C161.117704,579.851301 159.327704,575.381301 162.007654,572.691301 C163.599314,571.027027 164.268873,568.68544 163.797654,566.431301 C163.709896,566.337763 163.629647,566.237452 163.557654,566.131301 C163.241119,565.696718 163.022752,565.198569 162.917654,564.671301 C162.677654,563.551301 162.887654,561.981301 164.697654,560.171301 C165.207366,559.629724 165.635218,559.016582 165.967654,558.351301 C168.687654,553.201301 170.057654,542.291301 170.057654,542.291301 C170.057654,542.291301 172.477654,455.881301 180.397654,442.681301 C180.817654,441.991301 189.225444,428.744801 189.665454,428.474781 C198.605454,423.114781 268.379024,429.518201 268.379024,429.518201 C268.379024,429.518201 272.597664,440.851291 272.787664,442.031281 C273.817844,448.661301 280.767794,474.031301 274.697784,507.411301 Z" id="Path" fill="#2F2E41" fill-rule="nonzero"></path>
        <path d="M347.102284,315.298951 C346.784437,317.814083 345.368867,320.059247 343.236475,321.430311 C341.104083,322.801376 338.473917,323.157502 336.053704,322.402861 L317.965934,346.887991 L312.518434,332.036511 L330.530024,311.061901 C332.101751,306.990733 336.470084,304.73855 340.69811,305.819536 C344.926136,306.900523 347.677434,310.972994 347.102254,315.298951 L347.102284,315.298951 Z" id="Path" fill="#FFB8B8" fill-rule="nonzero"></path>
        <path d="M182.060084,419.014241 C180.401884,419.014241 179.459984,418.689051 179.095244,417.991781 C178.560084,416.968351 179.488794,415.631431 180.563994,414.082601 C181.361781,413.071427 181.990979,411.938013 182.427274,410.726161 C183.070334,408.153891 187.410674,343.179281 184.814474,330.196861 C184.213894,327.192951 184.730984,323.342371 186.350614,318.752521 C190.774924,306.217371 196.813994,302.364831 208.844754,294.691001 C209.821314,294.067955 210.838241,293.417238 211.895534,292.738851 C213.263204,291.859951 213.187034,288.945851 213.106474,285.859951 C213.017114,282.430261 212.924344,278.883381 214.604474,276.666591 L214.713854,276.522061 L214.890124,276.481061 C218.954124,275.541611 232.622544,273.797471 240.717274,276.493761 L240.829084,276.531841 L240.912584,276.614841 C242.835434,278.537691 243.010724,282.262301 243.180164,285.863841 C243.318834,288.820841 243.450164,291.612841 244.538074,292.825761 C252.854964,302.096261 262.287584,301.915601 262.383284,301.913651 L262.850574,301.899981 L262.896954,302.364821 C266.514634,339.162671 272.346664,394.702711 273.585954,396.888261 C273.718082,397.092132 273.725985,397.352533 273.606464,397.564041 C271.787134,400.963461 188.310084,419.014241 182.060084,419.014241 Z" id="Path" fill="#FFFFFF" fill-rule="nonzero"></path>
        <circle id="Oval" fill="#FFB8B8" fill-rule="nonzero" cx="236.383664" cy="241.397471" r="24.66737"></circle>
        <path d="M252.864564,286.488211 C251.695244,284.818441 245.764564,264.420791 243.166044,258.159751 C242.900174,259.505311 239.920234,264.722241 239.850454,266.110511 L239.824594,266.624791 L239.313914,266.690961 C238.545804,266.788961 220.403284,268.991101 210.961504,258.284961 C205.367504,251.943321 204.098964,242.431171 207.185874,230.007131 C206.624403,229.896925 206.086432,229.689715 205.596104,229.394801 C203.943527,228.251013 202.878921,226.437136 202.686034,224.436621 L202.163324,224.576771 C199.501074,225.294961 196.498324,226.245341 194.558534,228.439021 C192.399134,230.878711 192.014774,234.193591 191.606964,237.702761 C191.448239,239.378068 191.184048,241.041701 190.815964,242.683761 C189.500474,247.990811 185.797024,252.961631 179.808474,257.458461 C173.779614,261.985971 167.632864,264.576041 161.538474,265.155281 C154.340294,265.842201 147.398364,263.477091 142.974914,258.834101 C138.041994,253.657571 136.751764,245.693101 139.906044,239.897001 L140.413714,238.963461 L140.971304,239.868121 C143.779124,244.425121 149.914444,246.886451 155.892774,245.851871 C161.018774,244.965261 166.100274,241.710531 170.201314,236.687381 C173.945064,232.102131 176.527314,226.686801 179.024754,221.449521 C181.564894,216.124421 184.191054,210.617661 187.973904,205.945191 C192.240964,200.674831 197.566064,197.233031 202.968754,196.252591 C206.903184,195.541591 210.414154,196.347591 212.602424,198.468521 C214.148589,200.062246 215.064341,202.162606 215.179854,204.380091 C216.525594,204.079379 217.928536,204.159993 219.230974,204.612871 C221.790129,205.654041 223.5717,208.015377 223.870364,210.762031 C231.797564,206.592411 242.288964,207.270911 247.715124,210.399321 C249.986994,211.709391 251.291654,213.359321 251.523234,215.199911 C257.932234,215.557801 264.825454,221.800801 264.825454,230.645911 L264.825454,231.261851 L264.209524,231.261851 C259.137054,231.261851 254.506084,234.179131 251.821574,239.065141 C248.611112,244.86537 248.824742,251.955884 252.378574,257.552311 C256.214844,263.439561 257.511857,270.626243 255.975574,277.483101 L253.660994,287.625031 L252.864564,286.488211 Z" id="Path" fill="#2F2E41" fill-rule="nonzero"></path>
        <path d="M281.181174,378.741781 L264.920924,369.595301 C236.566434,349.941981 229.582024,334.334561 228.709024,324.697841 C227.777374,314.415611 233.255404,308.791591 233.489294,308.558191 L233.615754,308.465421 L248.273474,300.976161 C252.039767,299.052008 256.45076,298.836881 260.386419,300.385404 C264.322077,301.933926 267.403827,305.097146 268.849154,309.071861 L282.407264,346.359951 L297.439024,335.273031 L303.849664,332.746671 L309.022514,325.829671 L323.229514,317.543541 L333.783714,327.042541 L320.510714,353.587471 L313.136714,355.465401 L311.572714,359.493721 L311.433554,359.582581 L281.181174,378.741781 Z" id="Path" fill="#FFFFFF" fill-rule="nonzero"></path>
    </g>
</svg>