<?xml version="1.0" encoding="UTF-8"?>
<svg width="900px" height="900px" viewBox="0 0 900 900" version="1.1" xmlns="http://www.w3.org/2000/svg" xmlns:xlink="http://www.w3.org/1999/xlink">
    <title>OnBoarding 2</title>
    <g id="OnBoarding-2" stroke="none" stroke-width="1" fill="none" fill-rule="evenodd">
        <g id="Group" transform="translate(228.000000, 312.000000)" fill-rule="nonzero">
            <path d="M44.4668471,171.086932 C46.8798471,178.18594 45.1510353,185.177928 40.6059765,186.70373 C36.0609176,188.229532 30.4217529,183.711629 28.0088471,176.60978 C27.0058471,173.786016 26.6976941,170.76455 27.1102,167.798144 L17.2683294,137.591013 L31.6266706,133.302051 L39.8046118,163.536278 C41.9430118,165.64692 43.5417059,168.236048 44.4668588,171.086932 L44.4668471,171.086932 Z" id="b-287" fill="#FFB6B6"></path>
            <path d="M50.4954118,0 C50.4954118,0 28.8150941,0.937032623 27.8724706,12.1814124 C26.9298471,23.4257922 0,93.5594147 0,93.5594147 L21.1764706,157.881512 L37.6470588,147.356078 L28.2352941,97.0678927 L60,49.1186927 L50.4954118,0 Z" id="Path" fill="#FFFFFF"></path>
        </g>
        <path d="M751,251.880622 C751,208.133289 713.904234,184.067525 671.530298,172.669139 C617.20301,158.05543 577.414553,187.626965 592.060597,251.880622 C595.379967,266.443103 603.319275,283.451286 613.146528,298 L691.130551,298 C717.180024,281.095926 751,285.83654 751,251.880622 L751,251.880622 Z" id="Path" fill="#FFFFFF" fill-rule="nonzero"></path>
        <g id="Group" transform="translate(210.000000, 717.000000)" fill-rule="nonzero">
            <polygon id="Path" fill="#FFB6B6" points="13.6704873 51.8106943 25.092438 53.5328044 37.950932 2.54252464 21.0951477 0"></polygon>
            <path d="M49.9685483,80.8399411 L49.9685483,80.8399411 C49.7251635,82.7876696 48.1544593,84.1928247 46.4602765,83.9783817 L23.7211949,81.1002056 C23.7211949,81.1002056 22.6147362,71.7640547 13.9780712,66.7132979 L11.730296,79.5824712 L0,78.0977207 L4.02307072,57.4564004 C4.02307072,57.4564004 2.27713979,45.919801 9.5054548,41.0505032 C16.7338401,36.1812172 11.356393,36.3057736 11.356393,36.3057736 L15.5303391,23.7434998 L32.9939354,28.0849714 L30.5964209,48.3306608 L36.689475,69.4988288 L48.5229275,77.3687136 C49.5761622,78.0691574 50.1441733,79.433277 49.9684078,80.8398821 L49.9685483,80.8399411 L49.9685483,80.8399411 Z" id="Path" fill="#2F2E41"></path>
        </g>
        <g id="Group" transform="translate(352.000000, 720.000000)" fill-rule="nonzero">
            <polygon id="Path" fill="#FFB6B6" points="10.3214217 51.5958759 21.8865805 51.8662087 28.3331882 0.400072081 11.2659274 0"></polygon>
            <path d="M50,75.495912 L50,75.495912 C50,77.4311471 48.6135166,79 46.9031875,79 L23.9473287,79 C23.9473287,79 21.6882818,70.0051882 12.4778114,66.1342183 L11.8421222,79 L0,79 L1.4347969,58.3124059 C1.4347969,58.3124059 -1.73303099,47.2444732 4.84586976,41.5868571 C11.4248409,35.929241 6.09611819,36.7168227 6.09611819,36.7168227 L8.68417292,23.9127613 L26.5788984,25.9971547 L26.7104757,46.0965292 L35.3946486,66.0470359 L48.1322475,72.2796467 C49.2659593,72.8343623 50,74.0983093 50,75.4958771 L50,75.495912 L50,75.495912 Z" id="Path" fill="#2F2E41"></path>
        </g>
        <polygon id="Path" fill="#2F2E41" fill-rule="nonzero" points="275.948631 429.928004 253.870662 503.192096 257.838334 613.970198 226 726.97686 251.278937 726.97686 303.950279 615.490637 318.184757 516.68811 357.541139 731 382 731 376.295198 506.3748 358.501057 428"></polygon>
        <path d="M332.386668,284.937046 L300.536533,283 L291.850134,300.433406 L260,317.866813 L283.163735,379.852264 L264.151198,465.772782 C264.151198,465.772782 283.711588,447.527798 306.220952,470.463507 C339.555599,504.429548 374,488.053724 374,488.053724 L354.133727,397.757275 L361.145353,322.705682 C362.046277,316.784897 370.295583,309.407865 364.651166,307.460827 L341.073055,297.527842 L332.386656,284.937046 L332.386668,284.937046 Z" id="Path" fill="#FFFFFF" fill-rule="nonzero"></path>
        <path d="M325.393618,295.995259 L287.133051,295.995259 C287.189202,293.414362 286.807228,290.852604 286.020077,288.530887 C285.997917,291.107311 285.603443,293.649079 284.861597,295.995259 L283.123866,295.995259 C280.465661,295.991333 278.311449,292.898506 278.308726,289.082133 C269.317745,279.171644 270.497081,267.012396 278.308726,253.386601 C278.310123,235.909415 288.718293,209.7097 300.027807,220.673078 C300.392726,220.64575 306.125852,217 306.490783,217 C316.440384,217.011579 319.861773,229.902295 322.866482,243.520041 C326.290277,241.254938 328.648962,250.709914 330.355566,267.351745 C330.853585,272.208182 331.296087,277.676661 331.693307,283.644512 C332.790132,288.65177 330.851977,293.987519 327.364308,295.56224 C326.725784,295.850531 326.060511,295.998136 325.391153,296 L325.39363,295.995247 L325.393618,295.995259 Z" id="c-288" fill="#2F2E41" fill-rule="nonzero"></path>
        <circle id="d" fill="#FFB6B6" fill-rule="nonzero" cx="318" cy="252" r="28"></circle>
        <path d="M320.617446,296.522528 L320.617446,296.522528 C318.000286,300.027208 313.423288,301.421755 309.309563,299.967877 L296.870159,295.57153 C295.705847,295.57153 294.715515,294.886183 294.661222,293.998323 L294.654925,293.900506 C294.529979,292.049662 291.128545,291.738283 290.338815,293.490781 C290.021138,294.195728 289.659349,294.89012 289.254146,295.57153 L287,295.57153 L287,240.960194 C287,231.593338 296.946876,224 309.216965,224 L309.217,224 C319.693033,224 328.74558,229.586577 330.940746,237.40633 C330.940746,237.40633 346.514095,251.988244 337.335576,260.186392 C328.157057,268.38454 341.510194,275.057472 341.510194,275.057472 C344.162103,284.504243 335.73228,299.858308 323.796519,302.985658 C322.39253,303.353521 322.106116,296.522539 320.617435,296.522539 L320.617446,296.522528 Z" id="e-289" fill="#2F2E41" fill-rule="nonzero"></path>
        <path d="M353.791317,248.106654 C352.645783,249.734876 349.652358,254.003814 340.313824,253.346871 C337.935667,253.175486 329.487932,250.848849 323.339593,250.963133 C319.264863,251.034533 316.756252,251.005936 311.738939,250.963133 C305.808153,250.90595 304.184067,250.791748 303.038451,249.534894 C300.819869,247.092561 302.646988,242.750729 301.588368,242.393672 C300.703844,242.093704 298.412682,244.77881 297.238118,248.106654 C294.772965,255.090789 303.618519,264.817132 304.488523,273.81505 C305.416597,283.512795 296.281096,264.931322 297.238118,273.81505 C298.311166,283.812762 302.153916,283.055753 302.110377,286.669242 C302.09595,287.211982 301.936374,287.683242 301.588368,288.097481 C301.283912,288.468837 300.979363,288.611625 295.788035,289.525721 C289.58173,290.625408 286.464022,291.168148 285.637464,290.953961 C283.50589,290.41122 281.345192,287.397643 279.837131,285.240979 C277.342949,281.713164 279.11209,285.269483 279.837131,280.956248 C280.533237,276.785708 282.70835,276.243061 282.737298,272.386787 C282.766328,267.530718 279.329643,266.059676 276.936965,260.960834 C272.514229,251.534366 276.835449,240.62265 278.387048,236.680678 C279.132232,234.79026 280.48389,232.397675 282.852717,228.444614 C284.75441,225.271102 287.278369,222.475529 290.356539,220.38088 C294.970061,217.241452 300.328535,215.090297 306.122371,214.237947 C309.295876,213.771077 312.531394,214.016255 315.651306,214.7546 L323.733085,216.667184 C327.130138,217.471093 330.332463,218.92814 333.156095,220.954646 L333.156095,220.954646 C335.787892,220.963272 338.070026,222.638662 338.972407,225.073699 C339.066843,225.32853 339.152766,225.476956 339.223492,225.455187 C353.791282,220.969995 353.781485,234.254336 353.621746,242.552918 C353.605394,243.402279 353.636337,244.153943 353.747813,244.764512 L353.747813,244.807396 C354.037842,246.449823 354.110328,247.649588 353.79127,248.106631 L353.791317,248.106654 Z" id="Path" fill="#2F2E41" fill-rule="nonzero"></path>
        <path d="M181.451007,780.245073 C179.035051,780.395946 177.699829,777.403932 179.52763,775.660109 L179.709474,774.939502 C179.685653,774.882093 179.661727,774.824742 179.637602,774.767425 C177.188539,768.947548 172.803622,774.441049 166.484453,774.831922 C157.190944,775.406785 157.329765,782.413131 160.929926,790.605362 C161.907261,792.829279 153.61098,774.884914 153.61098,762.838666 C153.61098,759.811973 153.777188,756.785316 154.117042,753.766294 C154.396532,751.296769 154.781724,748.842376 155.280267,746.410503 C157.976637,733.264979 163.815237,720.744431 172.236867,710.28675 C176.285333,708.080737 179.661528,704.63248 181.700852,700.499156 C182.433476,699.008365 188.7281,697.749113 189,696.115352 C188.539275,696.175594 181.542222,688.836787 181.889712,688.407657 C181.247635,687.436453 180.098432,686.953678 179.397183,686.005975 C175.909625,681.292682 171.104655,682.115647 168.596257,688.520645 C163.237735,691.21645 163.185872,695.687271 166.473834,699.987169 C168.565653,702.722793 168.853071,706.424398 170.688485,709.353093 C170.499614,709.594049 170.303234,709.827463 170.114421,710.068419 C170.041848,710.161207 169.969473,710.254146 169.897308,710.347225 C166.934734,714.168405 161.019222,713.189648 159.369417,708.648968 C159.249084,708.317789 158.22792,726.257258 158.996316,707.689281 C159.764713,689.121305 153.065099,698.573663 149.673245,694.291692 C145.621926,689.177187 137.380689,691.50162 136.666822,697.979286 C136.659993,698.041265 136.653339,698.103174 136.646802,698.165153 C137.148386,698.447199 137.63976,698.746893 138.119733,699.063327 C140.855395,700.866937 139.908967,705.094377 136.667348,705.592423 L136.593944,705.603695 C136.775238,707.403097 137.08491,709.187485 137.538057,710.941741 C133.210195,727.625175 142.550386,733.704228 155.889788,733.979944 L156.584885,734.965928 C155.321734,738.588921 154.305563,742.298849 153.543025,746.056605 C152.825486,749.542467 152.326943,753.065992 152.047524,756.604637 L152.035888,756.755929 C151.804485,759.766256 147.983482,761.046572 146.062993,758.71194 C145.574226,758.117773 145.074057,757.596927 144.569936,757.184361 C138.786485,752.448652 130.615564,750.704748 124.376242,746.898174 C121.372809,745.065783 117.524137,747.433742 118.048314,750.904684 L118.07383,751.07092 C119.002845,751.447304 119.909186,751.884035 120.785355,752.373361 C121.28736,752.655711 121.779144,752.955603 122.259503,753.27234 C124.995574,755.076416 124.048398,759.304428 120.80589,759.800701 L120.732428,759.81195 C120.67957,759.81948 120.634232,759.827045 120.581445,759.834611 L120.629449,759.947681 C122.715468,764.839205 127.701275,768.00741 133.025498,767.717216 C139.292629,767.375627 147.077223,772.598831 153.943315,781.834036 L153.950881,781.834059 C155.310426,787.736769 157.296893,793.503923 159.849858,799 L180.922866,799 C180.998445,798.766609 181.0664,798.525664 181.134401,798.292239 C179.185695,798.412781 177.221891,798.299804 175.303379,797.94601 C176.866893,796.03362 178.430337,794.10618 179.993851,792.193859 C180.031611,792.156208 180.061864,792.118556 180.092047,792.080917 C180.885106,791.102218 181.685743,790.130945 182.478803,789.152222 L182.479224,789.151057 C182.528865,786.146466 182.167552,783.151759 181.451592,780.245469 L181.450996,780.245049 L181.451007,780.245073 Z" id="Path" fill="#F3F3F3" fill-rule="nonzero"></path>
        <path d="M78,800.5 C78,801.331971 78.6194152,802 79.3907538,802 L501.609316,802 C502.380585,802 503,801.331971 503,800.5 C503,799.668105 502.380585,799 501.609316,799 L79.3907538,799 C78.6194152,799 78,799.668105 78,800.5 Z" id="Path" fill-opacity="0.663652753" fill="#F3F3F3" fill-rule="nonzero"></path>
        <path d="M711,133.914286 L711,258.085714 C711,269.066709 702.066709,278 691.085714,278 L566.914286,278 C555.933291,278 547,269.066709 547,258.085714 L547,133.914286 C547,122.933291 555.933291,114 566.914286,114 L691.085714,114 C702.066709,114 711,122.933291 711,133.914286 Z M691.085714,275.657143 C700.790145,275.657143 708.657143,267.790145 708.657143,258.085714 L708.657143,195.48347 C708.657143,151.775315 673.224685,116.342857 629.51653,116.342857 L566.914286,116.342857 C557.209855,116.342857 549.342857,124.209855 549.342857,133.914286 L549.342857,258.085714 C549.342857,267.790145 557.209855,275.657143 566.914286,275.657143 L691.085714,275.657143 Z" id="Shape" fill="#2E678D" fill-rule="nonzero"></path>
        <path d="M614.198948,374 L574.80142,374 C573.808176,374 573,373.326975 573,372.499842 C573,371.672709 573.808188,371 574.80142,371 L614.198948,371 C615.192192,371 616,371.672709 616,372.499842 C616,373.326975 615.192192,374 614.198948,374 L614.198948,374 Z" id="Path" fill="#2E678D" fill-rule="nonzero"></path>
        <g id="Group" transform="translate(735.000000, 98.000000)" fill="#2E678D" fill-rule="nonzero">
            <path d="M63.5957214,3.60133703 L23.4046545,3.60133703 C22.3914043,3.60133703 21.5669501,2.7934068 21.5669501,1.80047862 C21.5669501,0.807550435 22.391416,0 23.4046545,0 L63.5957214,0 C64.6089715,0 65.4330499,0.807550435 65.4330499,1.80047862 C65.4330499,2.7934068 64.6089715,3.60133703 63.5957214,3.60133703 L63.5957214,3.60133703 Z" id="Path"></path>
            <path d="M63.5957214,42 L23.4046545,42 C22.3914043,42 21.5669501,41.1920698 21.5669501,40.1991416 C21.5669501,39.2062134 22.391416,38.398663 23.4046545,38.398663 L63.5957214,38.398663 C64.6089715,38.398663 65.4330499,39.2062134 65.4330499,40.1991416 C65.4330499,41.1920698 64.6089715,42 63.5957214,42 L63.5957214,42 Z" id="Path"></path>
            <path d="M85.1626715,22.8132595 L1.83770436,22.8132595 C0.824454185,22.8132595 0,22.0053293 0,21.0124011 C0,20.0194729 0.82446593,19.2119225 1.83770436,19.2119225 L85.1626715,19.2119225 C86.1759216,19.2119225 87,20.0194729 87,21.0124011 C87,22.0053293 86.1759216,22.8132595 85.1626715,22.8132595 L85.1626715,22.8132595 Z" id="Path"></path>
        </g>
        <path d="M738.226133,407 L564.773867,407 C554.421913,407 546,398.645848 546,388.377184 L546,325.622816 C546,315.354152 554.421913,307 564.773867,307 L738.226133,307 C748.578087,307 757,315.354152 757,325.622816 L757,388.377184 C757,398.645848 748.578087,407 738.226133,407 Z M564.773867,309.32557 C555.714898,309.32557 548.344445,316.636164 548.344445,325.622804 L548.344445,388.377172 C548.344445,397.363824 555.714909,404.674407 564.773867,404.674407 L738.226133,404.674407 C747.285102,404.674407 754.655555,397.363813 754.655555,388.377172 L754.655555,325.622804 C754.655555,316.636152 747.285091,309.32557 738.226133,309.32557 L564.773867,309.32557 Z" id="Shape" fill="#2E678D" fill-rule="nonzero"></path>
        <path d="M803.927978,298 L783.093178,298 C747.751952,298 719,269.248048 719,233.907393 L719,213.072593 C719,205.864098 724.864098,200 732.072022,200 L803.927978,200 C811.135902,200 817,205.864098 817,213.072593 L817,284.927407 C817,292.135902 811.135902,298 803.927978,298 L803.927978,298 Z M732.072022,202.333333 C726.141213,202.333333 721.333333,207.141213 721.333333,213.072022 L721.333333,233.907393 C721.333333,268.016095 748.983905,295.666667 783.092607,295.666667 L803.927978,295.666667 C809.858787,295.666667 814.666667,290.858787 814.666667,284.927978 L814.666667,239.161418 C814.666667,218.821833 798.178167,202.333333 777.838582,202.333333 L732.072022,202.333333 Z" id="Shape" fill="#2E678D" fill-rule="nonzero"></path>
        <g id="Group" transform="translate(355.000000, 306.000000)" fill-rule="nonzero">
            <path d="M22.7061791,184.093892 C23.2491128,191.559203 27.5487932,197.330874 32.30919,196.985253 C37.0695869,196.639633 40.487199,190.30826 39.9430714,182.840355 C39.7667093,179.854254 38.8763888,176.953735 37.3465552,174.381453 L34.6458627,142.779619 L19.8134746,144.360552 L24.0506025,175.346517 C22.9089013,178.113326 22.4478923,181.112814 22.7061791,184.093892 L22.7061791,184.093892 Z" id="f-290" fill="#FFB6B6"></path>
            <path d="M0,0 C0,0 21.5706466,0.935987973 22.5085018,12.167832 C23.446357,23.399676 33.7627527,95.4706681 33.7627527,95.4706681 L38.4520287,167.54166 L21.5706583,170.349624 L1.07817708,85.1748121 L0,0 L0,0 Z" id="Path" fill="#FFFFFF"></path>
        </g>
        <path d="M669.752238,335.044804 C674.185818,326.657396 679.806498,320.606129 686,316 L613,316 C631.788502,342.633707 656.705173,359.727288 669.752227,335.044804 L669.752238,335.044804 Z" id="Path" fill="#FFFFFF" fill-rule="nonzero"></path>
    </g>
</svg>