<?xml version="1.0" encoding="UTF-8"?>
<svg width="900px" height="900px" viewBox="0 0 900 900" version="1.1" xmlns="http://www.w3.org/2000/svg" xmlns:xlink="http://www.w3.org/1999/xlink">
    <title>OnBoarding 3</title>
    <g id="OnBoarding-3" stroke="none" stroke-width="1" fill="none" fill-rule="evenodd">
        <path d="M425.40345,693.936095 C425.40345,693.936095 435.81445,676.855335 449.18085,686.954575 C462.54725,697.053815 487.30085,714.093755 487.30085,714.093755 C487.30085,714.093755 492.37085,724.992845 479.24854,720.898965 C466.12623,716.805085 423.28882,710.216965 423.28882,710.216965 L425.40345,693.936095 Z" id="b901917b-4981-4312-adbf-d5b8f006e98e-42" fill="#FEB8B8" fill-rule="nonzero"></path>
        <path d="M134.45306,585.460705 C137.77077,558.782575 154.30442,532.496865 179.74729,523.815075 C169.713338,551.27434 169.715513,581.397729 179.75343,608.855545 C183.66302,619.430845 189.11256,630.786045 185.43508,641.444345 C183.14699,648.076235 177.54949,653.150215 171.29262,656.322835 C165.03536,659.495465 158.0911,661.007595 151.23376,662.489475 L149.88419,663.605645 C138.99826,639.024595 131.13536,612.138785 134.45306,585.460705 Z" id="Path" fill="#F8F8F8" fill-rule="nonzero"></path>
        <path d="M179.99977,524.319465 C165.183048,540.921169 155.974022,561.769398 153.68072,583.902915 C153.102433,588.658992 153.277447,593.476497 154.19932,598.178075 C155.245332,602.72899 157.49093,606.916774 160.70279,610.306305 C163.63405,613.526885 167.00536,616.481735 169.1027,620.358775 C171.214525,624.405001 171.499095,629.160189 169.8849,633.429395 C168.03317,638.740495 164.38351,643.069485 160.66732,647.178855 C156.54121,651.741515 152.18318,656.415325 150.42927,662.464215 C150.21676,663.197115 149.09196,662.824515 149.30415,662.092725 C152.35565,651.568725 162.5717,645.590845 167.44371,636.111995 C169.71707,631.688995 170.67129,626.554075 168.54004,621.885145 C166.67636,617.802365 163.20244,614.752325 160.20629,611.517065 C157.024553,608.256407 154.689618,604.266265 153.40545,599.895195 C152.247186,595.255732 151.886873,590.452994 152.33994,585.692645 C153.189003,574.959286 155.720421,564.426172 159.84146,554.479165 C164.481807,543.100638 171.034407,532.599749 179.21576,523.430825 C179.72237,522.863535 180.50307,523.755885 179.99976,524.319465 L179.99977,524.319465 Z" id="Path" fill="#FFFFFF" fill-rule="nonzero"></path>
        <path d="M153.99965,576.732545 C146.437773,574.896659 141.319339,567.852824 141.90892,560.093645 C141.96929,559.333645 143.15305,559.391805 143.0926,560.152765 C142.530045,567.379762 147.316891,573.939039 154.37114,575.607425 C155.11289,575.783785 154.73714,576.907895 153.99965,576.732545 L153.99965,576.732545 Z" id="Path" fill="#FFFFFF" fill-rule="nonzero"></path>
        <path d="M159.00146,608.869095 C165.614181,604.920691 170.495757,598.624939 172.6728,591.237215 C172.8879,590.505095 174.0128,590.877465 173.79792,591.608715 C171.518088,599.292325 166.424736,605.833693 159.53435,609.927355 C158.87735,610.317095 158.348,609.256715 159.00146,608.869095 L159.00146,608.869095 Z" id="Path" fill="#FFFFFF" fill-rule="nonzero"></path>
        <path d="M165.58107,544.223065 C168.313149,545.521346 171.514945,545.358814 174.10151,543.790545 C174.75327,543.392675 175.28192,544.453545 174.63441,544.848805 C171.769858,546.567444 168.239699,546.754492 165.20957,545.348185 C164.906279,545.237158 164.741365,544.909659 164.83276,544.599885 C164.936686,544.290349 165.270507,544.12225 165.58107,544.223065 L165.58107,544.223065 Z" id="Path" fill="#FFFFFF" fill-rule="nonzero"></path>
        <path d="M257.30075,571.465415 C256.90084,571.725415 256.50094,571.985415 256.10055,572.255415 C250.742239,575.778907 245.679035,579.731889 240.9609,584.075355 C240.59079,584.405355 240.22067,584.745355 239.8608,585.085355 C228.605303,595.670919 219.412919,608.254157 212.75094,622.195405 C210.105078,627.745391 207.885292,633.488631 206.1108,639.375405 C203.66061,647.505405 201.6508,656.515405 196.8008,663.165405 C196.302573,663.864884 195.761497,664.532829 195.18068,665.165405 L151.35055,665.165405 C151.25094,665.115405 151.15084,665.075405 151.05075,665.025405 L149.30075,665.105405 C149.37106,664.795405 149.45065,664.475405 149.52096,664.165405 C149.56096,663.985405 149.6108,663.805405 149.65084,663.625405 C149.68063,663.505405 149.7109,663.385405 149.73092,663.275405 C149.74069,663.235405 149.75092,663.195455 149.76071,663.165405 C149.78071,663.055405 149.811,662.955405 149.83102,662.855405 C150.27096,661.065405 150.724247,659.275405 151.19088,657.485405 C151.19088,657.475405 151.19088,657.475405 151.20065,657.465405 C154.79098,643.835405 159.55075,630.385405 166.20065,618.085405 C166.40084,617.715405 166.60055,617.335405 166.82077,616.965405 C169.849,611.437778 173.323945,606.166899 177.2109,601.205405 C179.348015,598.495487 181.620943,595.895493 184.02096,593.415405 C190.234565,587.019176 197.415582,581.640109 205.30075,577.475405 C221.02096,569.175405 239.22067,565.995405 256.02096,571.065405 C256.45065,571.195455 256.87106,571.325395 257.30075,571.465415 Z" id="Path" fill="#F0F0F0" fill-rule="nonzero"></path>
        <path d="M257.20221,572.021705 C235.376516,576.356548 215.471551,587.45822 200.31457,603.749865 C196.989353,607.199158 194.228621,611.151037 192.13401,615.460015 C190.229222,619.723439 189.50087,624.419159 190.02463,629.059275 C190.42607,633.395545 191.33885,637.784585 190.67921,642.142925 C189.929282,646.645077 187.293544,650.613161 183.43434,653.050025 C178.75819,656.175765 173.23778,657.434885 167.79649,658.478575 C161.75499,659.637405 155.46138,660.745345 150.41914,664.519065 C149.8082,664.976305 149.13444,664.001605 149.74446,663.545065 C158.5171,656.979435 170.27312,658.357215 179.87007,653.722175 C184.34818,651.559375 188.20164,648.033945 189.31098,643.022895 C190.28105,638.640955 189.34365,634.114135 188.89925,629.727085 C188.321951,625.208003 188.859978,620.616301 190.46633,616.353085 C192.334791,611.951377 194.93868,607.899726 198.16649,604.371635 C205.306646,596.312846 213.669501,589.426832 222.9487,583.965845 C233.504419,577.67454 245.058569,573.235288 257.11125,570.840155 C257.85725,570.692225 257.94338,571.874745 257.20225,572.021715 L257.20221,572.021705 Z" id="Path" fill="#FFFFFF" fill-rule="nonzero"></path>
        <path d="M204.88627,598.216705 C199.953869,592.198081 200.107963,583.492325 205.25027,577.652025 C205.75601,577.081585 206.6662,577.840695 206.15978,578.411885 C201.359457,583.843539 201.232347,591.962768 205.86029,597.542025 C206.34635,598.129425 205.36956,598.800735 204.88629,598.216705 L204.88627,598.216705 Z" id="Path" fill="#FFFFFF" fill-rule="nonzero"></path>
        <path d="M189.53151,626.887415 C197.188613,627.716149 204.876759,625.628381 211.06292,621.040415 C211.67546,620.585355 212.3494,621.559915 211.7376,622.014415 C205.29122,626.776737 197.286107,628.93311 189.31985,628.053185 C188.56061,627.968785 188.7764,626.803445 189.53151,626.887375 L189.53151,626.887415 Z" id="Path" fill="#FFFFFF" fill-rule="nonzero"></path>
        <path d="M233.70634,579.232565 C235.106097,581.914069 237.760407,583.711999 240.76984,584.017115 C241.52978,584.091845 241.31317,585.257115 240.55818,585.182915 C237.23626,584.830495 234.305014,582.854445 232.73232,579.907245 C232.556995,579.635992 232.622501,579.275203 232.88199,579.082895 C233.151331,578.898323 233.519073,578.965091 233.70634,579.232565 Z" id="Path" fill="#FFFFFF" fill-rule="nonzero"></path>
        <path d="M487.94537,762.275635 C489.23116,751.936455 495.63882,741.749355 505.49927,738.384705 C501.610588,749.026617 501.611431,760.701015 505.50165,771.342365 C507.01682,775.440845 509.12881,779.841585 507.70359,783.972235 C506.682877,786.525568 504.72091,788.589626 502.22259,789.738435 C499.744003,790.863797 497.131448,791.666969 494.44873,792.128335 L493.92573,792.560905 C489.70688,783.034475 486.65959,772.614815 487.94537,762.275635 Z" id="Path" fill="#F0F0F0" fill-rule="nonzero"></path>
        <path d="M505.59712,738.580205 C499.854871,745.014243 496.285895,753.094026 495.39712,761.671925 C495.173009,763.515154 495.240841,765.382189 495.59812,767.204295 C496.003501,768.968018 496.873786,770.591009 498.11855,771.904635 C499.357429,773.066648 500.450571,774.374846 501.37396,775.800485 C502.1924,777.368614 502.302688,779.211499 501.67711,780.866045 C500.855333,782.863633 499.64052,784.675716 498.10481,786.194685 C496.50572,787.962955 494.81681,789.774305 494.13702,792.118565 C494.05466,792.402565 493.61875,792.258205 493.70102,791.974565 C494.88364,787.895955 498.84289,785.579225 500.73102,781.905675 C501.717183,780.232231 501.874036,778.196794 501.15591,776.392015 C500.299673,774.889517 499.209407,773.533109 497.92615,772.373845 C496.693059,771.110166 495.788147,769.563776 495.29046,767.869755 C494.841574,766.071717 494.701934,764.210402 494.87752,762.365515 C495.206579,758.205776 496.187636,754.123643 497.78475,750.268655 C499.583128,745.858873 502.122609,741.789224 505.29332,738.235785 C505.48965,738.015935 505.79221,738.361785 505.59716,738.580185 L505.59712,738.580205 Z" id="Path" fill="#FFFFFF" fill-rule="nonzero"></path>
        <path d="M495.5207,758.893035 C492.590079,758.181527 490.60642,755.451673 490.83491,752.444585 C490.85831,752.150055 491.31708,752.172585 491.29365,752.467495 C491.075622,755.268329 492.930765,757.810393 495.66465,758.456985 C495.95211,758.525335 495.8065,758.960985 495.52065,758.893035 L495.5207,758.893035 Z" id="Path" fill="#FFFFFF" fill-rule="nonzero"></path>
        <path d="M497.45917,771.347635 C500.021947,769.817422 501.913814,767.377487 502.75753,764.514355 C502.84089,764.230615 503.27684,764.374935 503.19358,764.658355 C502.310027,767.636162 500.336082,770.171288 497.66569,771.757795 C497.41106,771.908795 497.20592,771.497885 497.45917,771.347665 L497.45917,771.347635 Z" id="Path" fill="#FFFFFF" fill-rule="nonzero"></path>
        <path d="M500.00911,746.293895 C501.067934,746.797046 502.308798,746.734058 503.31123,746.126275 C503.56382,745.972075 503.7687,746.383215 503.51776,746.536405 C502.407594,747.202462 501.039476,747.274954 499.86514,746.729945 C499.747617,746.686901 499.683723,746.559987 499.71914,746.439945 C499.759432,746.320003 499.888794,746.254876 500.00914,746.293945 L500.00911,746.293895 Z" id="Path" fill="#FFFFFF" fill-rule="nonzero"></path>
        <path d="M535.55532,756.851705 C535.40032,756.952475 535.24532,757.053245 535.09018,757.157895 C533.013549,758.523429 531.051291,760.055418 529.22277,761.738745 C529.07933,761.866645 528.93589,761.998415 528.79642,762.130175 C524.434322,766.232636 520.871789,771.1093 518.28992,776.512265 C517.264515,778.663181 516.404232,780.88899 515.71652,783.170425 C514.76694,786.321225 513.98805,789.813055 512.10838,792.390285 C511.915296,792.661375 511.705601,792.920241 511.4805,793.165395 L494.494,793.165395 C494.4554,793.146025 494.4166,793.130505 494.37781,793.111135 L493.69959,793.142135 C493.72684,793.021995 493.75769,792.897975 493.78494,792.777835 C493.80045,792.708075 493.81976,792.638315 493.83527,792.568565 C493.84682,792.522055 493.85855,792.475565 493.86627,792.432905 C493.87005,792.417415 493.87403,792.401905 493.87781,792.390275 C493.88557,792.347655 493.8973,792.308885 493.90506,792.270135 C494.07556,791.576422 494.251227,790.882705 494.43206,790.188985 L494.43584,790.181225 C495.763305,784.881981 497.714703,779.758913 500.24913,774.919405 C500.32672,774.776005 500.40413,774.628735 500.48946,774.485345 C501.663059,772.343097 503.009786,770.300354 504.51619,768.377515 C505.34443,767.327289 506.225308,766.319666 507.15544,765.358515 C509.563528,762.879643 512.346537,760.794972 515.40244,759.180925 C521.49485,755.964245 528.54819,754.731825 535.05919,756.696725 C535.22586,756.747115 535.38879,756.797475 535.55532,756.851705 Z" id="Path" fill="#FDFDFD" fill-rule="nonzero"></path>
        <path d="M535.51713,757.067335 C527.058508,758.747304 519.344269,763.049786 513.47013,769.363665 C512.181435,770.700447 511.111508,772.232009 510.29974,773.901965 C509.56153,775.554265 509.279253,777.374105 509.48224,779.172395 C509.771804,780.846088 509.856988,782.548758 509.73592,784.242995 C509.44529,785.987817 508.423805,787.525662 506.92816,788.470075 C505.06933,789.570267 503.008371,790.285712 500.86767,790.573925 C498.52627,791.023025 496.08716,791.452415 494.13303,792.914925 C493.89626,793.092135 493.63514,792.714385 493.87155,792.537445 C497.27142,789.992915 501.82749,790.526885 505.54681,788.730555 C507.341732,787.988142 508.692442,786.457399 509.20566,784.584025 C509.426617,782.868848 509.372751,781.129414 509.04609,779.431195 C508.82236,777.679815 509.030875,775.900293 509.65342,774.248075 C510.377548,772.542179 511.386693,770.971949 512.63764,769.604625 C515.404825,766.481421 518.645871,763.81273 522.24205,761.696315 C526.332944,759.2581 530.810783,757.537654 535.48183,756.609415 C535.77097,756.552085 535.80433,757.010415 535.51709,757.067335 L535.51713,757.067335 Z" id="Path" fill="#FFFFFF" fill-rule="nonzero"></path>
        <path d="M515.242,767.219295 C513.330433,764.886761 513.390153,761.512819 515.38307,759.249395 C515.57907,759.028315 515.93181,759.322515 515.73555,759.543875 C513.875171,761.648928 513.825909,764.795558 515.61948,766.957815 C515.80786,767.185465 515.4293,767.445635 515.242,767.219295 L515.242,767.219295 Z" id="Path" fill="#FFFFFF" fill-rule="nonzero"></path>
        <path d="M509.29117,778.330705 C512.2587,778.651889 515.238262,777.842776 517.63573,776.064705 C517.87312,775.888345 518.1343,776.266035 517.8972,776.442185 C515.398888,778.287835 512.296484,779.123543 509.20914,778.782525 C508.9149,778.749815 508.99852,778.298185 509.29114,778.330715 L509.29117,778.330705 Z" id="Path" fill="#FFFFFF" fill-rule="nonzero"></path>
        <path d="M526.41124,759.861915 C526.953716,760.901144 527.982404,761.597939 529.14872,761.716185 C529.44324,761.745185 529.35929,762.196765 529.06672,762.167995 C527.779302,762.031414 526.64329,761.26559 526.03379,760.123395 C525.965841,760.018271 525.991225,759.878446 526.09179,759.803915 C526.196173,759.732382 526.338693,759.758256 526.41127,759.861915 L526.41124,759.861915 Z" id="Path" fill="#FFFFFF" fill-rule="nonzero"></path>
        <path d="M779.78833,542.655445 C774.68886,501.649895 749.27585,461.247525 710.16896,447.903205 C725.59162,490.109389 725.58828,536.410457 710.15953,578.614415 C704.15031,594.869145 695.7741,612.322625 701.42653,628.704925 C704.94342,638.898465 713.54704,646.697395 723.16415,651.573925 C732.78186,656.450405 743.4555,658.774625 753.99556,661.052335 L756.06991,662.767935 C772.80215,624.985705 784.8878,583.660985 779.78833,542.655445 Z" id="Path" fill="#F0F0F0" fill-rule="nonzero"></path>
        <path d="M709.78089,448.678555 C732.554892,474.196156 746.709603,506.240865 750.23452,540.261125 C750.94532,547.554125 751.03166,555.014125 749.43741,562.202705 C747.829637,569.197682 744.378044,575.63451 739.44126,580.844385 C734.93578,585.794565 729.75392,590.336305 726.53021,596.295495 C723.13221,602.576795 723.0017,609.713635 725.32792,616.385655 C728.17412,624.549055 733.78383,631.202925 739.49578,637.519215 C745.83778,644.532215 752.53631,651.716115 755.23215,661.013535 C755.55879,662.140045 757.28766,661.567345 756.96151,660.442535 C752.27121,644.266615 736.56867,635.078375 729.08016,620.508935 C725.58588,613.710565 724.11916,605.817935 727.39504,598.641595 C730.25961,592.366165 735.59919,587.678115 740.2044,582.705375 C745.03995,577.483925 748.7476,571.755045 750.65762,564.842005 C752.61146,557.770355 752.81662,550.291215 752.29536,543.012005 C750.990304,526.514327 747.099395,510.324436 740.76517,495.035415 C733.632748,477.546103 723.561107,461.40576 710.986,447.312705 C710.20732,446.440755 709.00735,447.812335 709.78094,448.678585 L709.78089,448.678555 Z" id="Path" fill="#FFFFFF" fill-rule="nonzero"></path>
        <path d="M749.7443,529.239935 C761.367253,526.418081 769.234517,515.591373 768.3283,503.665155 C768.23551,502.497075 766.416,502.586395 766.50892,503.756025 C767.37361,514.864267 760.015995,524.946197 749.17327,527.510575 C748.03317,527.781635 748.6107,529.509445 749.74427,529.239935 L749.7443,529.239935 Z" id="Path" fill="#FFFFFF" fill-rule="nonzero"></path>
        <path d="M742.05629,578.635315 C731.89223,572.56644 724.389016,562.889584 721.04279,551.534315 C720.71218,550.408995 718.98322,550.981315 719.31343,552.105315 C722.817642,563.915386 730.646362,573.96978 741.23721,580.261935 C742.24708,580.860935 743.06068,579.231125 742.05629,578.635335 L742.05629,578.635315 Z" id="Path" fill="#FFFFFF" fill-rule="nonzero"></path>
        <path d="M731.94312,479.271335 C727.743784,481.266849 722.822473,481.017028 718.8468,478.606525 C717.84502,477.994985 717.03245,479.625525 718.02771,480.233125 C722.430665,482.874739 727.856677,483.162239 732.51413,481.000695 C732.980307,480.830041 733.23379,480.326655 733.09331,479.850515 C732.933569,479.374745 732.420468,479.116372 731.94312,479.271335 L731.94312,479.271335 Z" id="Path" fill="#FFFFFF" fill-rule="nonzero"></path>
        <path d="M590.96566,521.144095 C591.58033,521.543745 592.195,521.943395 592.81042,522.358425 C601.046396,527.774199 608.828777,533.850121 616.08077,540.526235 C616.64966,541.033485 617.21854,541.556125 617.77167,542.078665 C635.071898,558.349177 649.201027,577.690204 659.44081,599.118555 C663.507621,607.649142 666.919534,616.47677 669.64701,625.525015 C673.41307,638.021215 676.50218,651.869935 683.95701,662.091335 C684.722806,663.166465 685.554461,664.193127 686.4472,665.165425 L753.8161,665.165425 C753.9692,665.088595 754.1231,665.027045 754.27691,664.950215 L756.96674,665.073215 C756.85867,664.596735 756.73633,664.104865 756.62826,663.628385 C756.56672,663.351735 756.49017,663.075075 756.42863,662.798385 C756.38284,662.613945 756.33631,662.429385 756.30554,662.260385 C756.29054,662.198935 756.27477,662.137485 756.25976,662.091385 C756.22899,661.922325 756.18246,661.768565 756.15169,661.614895 C755.475477,658.863615 754.77875,656.112305 754.06151,653.360965 C754.06151,653.345575 754.06151,653.345575 754.04651,653.330195 C748.528,632.380195 741.21202,611.706935 730.99081,592.801275 C730.6831,592.232575 730.37614,591.648485 730.03766,591.079785 C725.383119,582.583562 720.041963,574.48197 714.06753,566.855915 C710.782685,562.690652 707.289088,558.694347 703.60015,554.882345 C694.049555,545.051047 683.012008,536.783169 670.89215,530.381815 C646.72944,517.624345 618.75563,512.736545 592.93279,520.529385 C592.2723,520.729155 591.62611,520.928885 590.96566,521.144095 Z" id="Path" fill="#FCFAFA" fill-rule="nonzero"></path>
        <path d="M591.11711,521.999145 C624.664238,528.661999 655.259113,545.725793 678.55611,570.766825 C683.51454,576.161935 688.07494,582.066375 691.13001,588.765825 C694.05775,595.31891 695.17726,602.53645 694.37222,609.668525 C693.75522,616.333525 692.35222,623.079745 693.36611,629.778715 C694.4348,636.839795 698.62743,642.616715 704.50181,646.543455 C711.68928,651.347865 720.1744,653.283175 728.53792,654.887385 C737.824,656.668565 747.49756,658.371515 755.24773,664.171905 C756.18673,664.874705 757.22237,663.376535 756.28473,662.674795 C742.80073,652.583115 724.73121,654.700795 709.98024,647.576555 C703.09717,644.252235 697.17424,638.833475 695.46912,631.131265 C693.97812,624.396015 695.4189,617.438075 696.10197,610.694965 C696.81922,603.614595 696.33038,596.808145 693.6933,590.138505 C690.99571,583.315845 686.65654,577.220665 681.85779,571.722455 C670.883033,559.335711 658.028925,548.751582 643.76635,540.357795 C627.541718,530.687759 609.782453,523.864421 591.25692,520.182995 C590.11021,519.955605 589.97792,521.773205 591.1171,521.999105 L591.11711,521.999145 Z" id="Path" fill="#FFFFFF" fill-rule="nonzero"></path>
        <path d="M671.52917,562.262165 C679.110508,553.011252 678.873661,539.630087 670.96969,530.653265 C670.19234,529.776485 668.79334,530.943265 669.57169,531.821265 C676.95002,540.169971 677.145394,552.649616 670.03202,561.225195 C669.28492,562.128045 670.7863,563.159895 671.52913,562.262195 L671.52917,562.262165 Z" id="Path" fill="#FFFFFF" fill-rule="nonzero"></path>
        <path d="M695.13016,606.330325 C683.360839,607.604135 671.5438,604.395154 662.03537,597.343255 C661.09387,596.643805 660.05799,598.141755 660.99837,598.840355 C670.906763,606.160263 683.210997,609.474708 695.45551,608.122225 C696.62251,607.992505 696.29083,606.201315 695.13018,606.330325 L695.13016,606.330325 Z" id="Path" fill="#FFFFFF" fill-rule="nonzero"></path>
        <path d="M627.23138,533.082575 C625.079878,537.204172 621.000074,539.967674 616.37443,540.436655 C615.20643,540.551515 615.53931,542.342655 616.69977,542.228545 C621.805726,541.686844 626.311192,538.649545 628.72849,534.119545 C628.997959,533.702615 628.897276,533.148076 628.49844,532.852485 C628.084451,532.56879 627.519217,532.671415 627.23138,533.082535 L627.23138,533.082575 Z" id="Path" fill="#FFFFFF" fill-rule="nonzero"></path>
        <path d="M858.32677,666.165425 L42,666.165425 C41.4477153,666.165425 41,665.71771 41,665.165425 C41,664.61314 41.4477153,664.165425 42,664.165425 L858,664.165425 C858.552285,664.165425 859,664.61314 859,665.165425 C859,665.717705 858.879,666.165425 858.32677,666.165425 Z" id="Path" fill-opacity="0.663652753" fill="#F3F3F3" fill-rule="nonzero"></path>
        <path d="M327.32677,754.165425 L147,754.165425 C146.447715,754.165425 146,753.71771 146,753.165425 C146,752.61314 146.447715,752.165425 147,752.165425 L327,752.165425 C327.552285,752.165425 328,752.61314 328,753.165425 C328,753.717705 327.879,754.165425 327.32677,754.165425 Z" id="Path" fill-opacity="0.663652753" fill="#F3F3F3" fill-rule="nonzero"></path>
        <path d="M610.32677,793.165425 L430,793.165425 C429.447715,793.165425 429,792.71771 429,792.165425 C429,791.61314 429.447715,791.165425 430,791.165425 L610,791.165425 C610.552285,791.165425 611,791.61314 611,792.165425 C611,792.717705 610.879,793.165425 610.32677,793.165425 Z" id="Path" fill-opacity="0.663652753" fill="#F3F3F3" fill-rule="nonzero"></path>
        <path d="M780.32677,753.165425 L600,753.165425 C599.447715,753.165425 599,752.71771 599,752.165425 C599,751.61314 599.447715,751.165425 600,751.165425 L780,751.165425 C780.552285,751.165425 781,751.61314 781,752.165425 C781,752.717705 780.879,753.165425 780.32677,753.165425 Z" id="Path" fill-opacity="0.663652753" fill="#F3F3F3" fill-rule="nonzero"></path>
        <path d="M374.25844,715.165425 C363.05651,715.165425 352.80129,714.092015 344.65318,711.554915 C334.96818,708.539185 328.88704,703.662345 326.57665,697.049125 C324.366714,691.333372 325.388353,684.871735 329.25383,680.116555 C343.58132,661.447605 393.30021,656.181995 399.97131,655.559675 L413.50531,629.932315 C414.37125,623.817725 410.27419,619.188785 417.35278,619.073245 L501.08761,617.935995 C508.03942,617.789905 506.06639,622.094815 507.25679,628.056665 L520.0143,650.830775 L465.10793,674.003775 L473.40936,694.232115 L472.86758,694.546865 C456.79809,703.868275 410.585,715.164005 374.25844,715.165425 Z" id="ea820f77-130a-433d-b966-41522e2706cd-43" fill="#2F2E41" fill-rule="nonzero"></path>
        <path d="M512.413,651.802955 C512.413,651.802955 589.09326,643.027755 584.09237,678.128545 C579.09148,713.229335 520.74781,738.092385 432.39882,678.128545 L442.4006,660.578155 C442.4006,660.578155 475.32322,658.940625 495.32676,650.165425 L512.413,651.802955 Z" id="e2cf09bf-0dcf-4d32-bd8b-d83345e69099-44" fill="#2F2E41" fill-rule="nonzero"></path>
        <path d="M403.85367,492.783115 C403.85367,492.783115 389.27967,490.133285 385.30488,512.656815 C381.33009,535.180345 374.96316,588.533105 374.96316,588.533105 L355.19409,657.066895 C348.707579,660.510243 346.014787,668.402469 349.043838,675.092485 C352.07289,681.782501 359.78036,684.965779 366.647452,682.362991 C373.514545,679.760202 377.175734,672.267936 375.00949,665.250895 L401.46143,592.513115 L406.5035,529.885965 L406.5035,497.070565 C406.5035,495.254906 405.477653,493.595086 403.85367,492.783115 L403.85367,492.783115 Z" id="e394c6e3-5a9b-4b6a-ab2c-d395b6ec401d-45" fill="#FEB8B8" fill-rule="nonzero"></path>
        <path d="M506.43781,492.783115 C506.43781,492.783115 521.01181,490.133285 524.9866,512.656815 C528.96139,535.180345 535.32832,588.533105 535.32832,588.533105 L555.09738,657.066895 C561.583891,660.510243 564.276683,668.402469 561.247632,675.092485 C558.21858,681.782501 550.51111,684.965779 543.644018,682.362991 C536.776925,679.760202 533.115736,672.267936 535.28198,665.250895 L508.83005,592.513105 L503.788,529.885955 L503.788,497.070565 C503.788,495.254911 504.813835,493.595092 506.43781,492.783115 L506.43781,492.783115 Z" id="bce87157-538b-4a9f-a71d-b40a66ba2871-46" fill="#FEB8B8" fill-rule="nonzero"></path>
        <path d="M505.32677,474.165425 L477.75971,463.854935 L424.32677,463.165425 L401.32677,474.165425 L407.78665,511.291525 C407.78665,511.291525 394.74398,533.376235 409.10435,555.463595 L412.32677,634.165425 C412.32677,634.165425 463.8429,664.038755 507.32677,628.165425 L497.49869,554.991705 C497.49869,554.991705 513.9375,521.041545 501.19569,508.428805 L505.32677,474.165425 Z" id="Path" fill="#FFFFFF" fill-rule="nonzero"></path>
        <path d="M494.09876,485.702515 L505.32676,474.165425 C505.32676,474.165425 529.83159,487.054885 529.32676,530.165425 L498.41532,520.638925 L494.09876,485.702515 Z" id="Path" fill="#FFFFFF" fill-rule="nonzero"></path>
        <path d="M413.80047,485.702515 L401.87119,473.773235 C401.87119,473.773235 380.82195,490.054885 381.32677,533.165425 L409.48391,520.638925 L413.80047,485.702515 Z" id="Path" fill="#FFFFFF" fill-rule="nonzero"></path>
        <path d="M491.56372,685.407705 C491.56372,685.407705 482.97726,667.340755 468.63701,676.001705 C454.29676,684.662655 427.91187,699.047915 427.91187,699.047915 C427.91187,699.047915 421.74055,709.363455 435.21625,706.650315 C448.69195,703.937175 491.98125,701.820055 491.98125,701.820055 L491.56372,685.407705 Z" id="fa495a93-2d48-4158-a295-a9de2db8cd68-47" fill="#FEB8B8" fill-rule="nonzero"></path>
        <path d="M467.70831,362.448855 C467.82955,362.332295 467.9565,362.227715 468.07618,362.108165 C475.74941,354.434875 477.30466,343.549035 471.54935,337.794055 C466.11091,332.355365 456.09362,333.452985 448.53227,340.065525 C442.04902,333.893245 433.35596,332.172525 427.72917,336.433405 C421.24072,341.346695 421.29117,352.342915 427.8426,360.994155 C428.29112,361.586545 428.76202,362.146605 429.2454,362.685535 C411.387396,369.222216 399.512,386.215212 399.512,405.231955 L399.512,448.352035 C399.512,450.905676 400.526478,453.354716 402.332193,455.160394 C404.137908,456.966071 406.58697,457.980445 409.14061,457.980445 L488.83612,457.980445 C493.975352,457.980445 498.1416,453.814318 498.1416,448.675085 L498.1416,405.231955 C498.138682,385.946584 485.92569,368.777568 467.70831,362.448855 Z" id="Path" fill="#2F2E41" fill-rule="nonzero"></path>
        <circle id="Oval" fill="#FFB6B6" fill-rule="nonzero" transform="translate(450.085568, 415.860611) rotate(-45.000000) translate(-450.085568, -415.860611) " cx="450.085568" cy="415.860611" r="37.81786"></circle>
        <path d="M410.34781,392.073285 C418.989749,398.029586 429.247041,401.199535 439.7427,401.157585 C435.99877,403.753541 431.736586,405.507037 427.24977,406.297275 C441.204524,409.290639 455.626905,409.371662 469.61441,406.535275 C472.723592,406.036727 475.723662,405.006328 478.48303,403.489275 C481.263904,401.936224 483.253943,399.274762 483.95717,396.168205 C484.88664,390.858355 480.74917,386.034205 476.44933,382.783035 C463.118081,372.856697 446.033443,369.442713 429.91119,373.483425 C424.71258,374.827205 419.50475,377.097625 416.12811,381.272505 C412.75147,385.447385 411.75125,391.883695 414.96833,396.182725 L410.34781,392.073285 Z" id="Path" fill="#2F2E41" fill-rule="nonzero"></path>
        <path d="M208.06951,316.606555 L209.26133,314.999925 L241.01039,338.549845 C239.28496,333.291275 233.17787,316.621085 223.16651,309.969575 C211.20633,302.023495 202.79164,304.495255 198.20718,311.395465 C193.62272,318.295675 194.6044,327.010645 206.56468,334.957205 C216.70288,341.693205 234.76345,340.756605 240.03268,340.314995 L208.06951,316.606555 Z" id="Path" fill="#F2F2F2" fill-rule="nonzero"></path>
        <path d="M685.76714,187.672085 L687.24114,189.024555 L660.51672,218.151975 C665.92624,216.982855 683.14121,212.642755 690.79793,203.377515 C699.94493,192.308675 698.36175,183.682515 691.97579,178.405255 C685.58983,173.127995 676.82003,173.197885 667.67258,184.266765 C659.91867,193.649375 658.97168,211.709405 658.86285,216.995945 L685.76714,187.672085 Z" id="Path" fill="#F2F2F2" fill-rule="nonzero"></path>
        <path d="M254.76714,498.672085 L256.24114,500.024555 L229.51672,529.151975 C234.92624,527.982855 252.14121,523.642755 259.79793,514.377515 C268.94493,503.308675 267.36175,494.682515 260.97579,489.405255 C254.58983,484.127995 245.82003,484.197885 236.67258,495.266765 C228.91867,504.649375 227.97168,522.709405 227.86285,527.995945 L254.76714,498.672085 Z" id="Path" fill="#F2F2F2" fill-rule="nonzero"></path>
        <path d="M480.74409,221.050055 L482.47552,222.051995 L462.67788,256.266835 C467.70688,253.956205 483.57697,245.998095 489.05027,235.297025 C495.5888,222.512905 492.17875,214.432805 484.80317,210.660395 C477.42759,206.887985 468.88017,208.851645 462.34117,221.635915 C456.79833,232.472585 459.77695,250.310445 460.81325,255.495565 L480.74409,221.050055 Z" id="Path" fill="#F8F8F8" fill-rule="nonzero"></path>
        <path d="M665.74409,435.050055 L667.47552,436.051995 L647.67788,470.266835 C652.70688,467.956205 668.57697,459.998095 674.05027,449.297025 C680.5888,436.512905 677.17875,428.432805 669.80317,424.660395 C662.42759,420.887985 653.88017,422.851645 647.34117,435.635915 C641.79833,446.472585 644.77695,464.310445 645.81325,469.495565 L665.74409,435.050055 Z" id="Path" fill="#F7F7F7" fill-rule="nonzero"></path>
    </g>
</svg>